<?xml version="1.0" standalone="no"?>
<!DOCTYPE svg PUBLIC "-//W3C//DTD SVG 20010904//EN"
 "http://www.w3.org/TR/2001/REC-SVG-20010904/DTD/svg10.dtd">
<svg version="1.0" xmlns="http://www.w3.org/2000/svg"
 width="2767.000000pt" height="2909.000000pt" viewBox="0 0 2767.000000 2909.000000"
 preserveAspectRatio="xMidYMid meet">

<g transform="translate(0.000000,2909.000000) scale(0.100000,-0.100000)"
fill="#ffffff" stroke="none">
<path d="M14025 28703 c-1490 -43 -2946 -345 -4313 -895 -608 -244 -1225 -550
-1777 -882 -1894 -1140 -3447 -2746 -4524 -4676 -127 -228 -400 -775 -503
-1010 -558 -1269 -893 -2568 -1017 -3935 -39 -420 -45 -593 -46 -1135 0 -543
7 -733 45 -1135 10 -110 15 -203 12 -207 -4 -3 -396 -163 -872 -354 -476 -190
-869 -351 -875 -355 -5 -5 395 -9 921 -9 l930 0 37 -207 c317 -1758 1026
-3454 2060 -4928 666 -949 1406 -1746 2345 -2527 l33 -27 -1424 -2813 c-1547
-3055 -1629 -3218 -1623 -3218 2 0 1067 1098 2366 2440 l2362 2441 43 -25
c110 -65 381 -209 578 -307 2127 -1065 4537 -1500 6922 -1248 3163 333 6066
1850 8160 4264 1906 2197 2993 5007 3053 7895 25 1178 -88 2227 -359 3328
-291 1185 -780 2375 -1400 3407 -46 77 -85 143 -87 147 -2 4 479 505 1069
1115 590 609 1088 1125 1108 1146 l35 37 -84 -34 c-47 -19 -708 -285 -1470
-591 -762 -307 -1394 -560 -1405 -562 -16 -4 -35 14 -85 79 -261 337 -619 738
-989 1108 -462 462 -848 798 -1346 1172 -2267 1702 -5046 2584 -7880 2501z
m990 -1114 c1400 -78 2732 -398 4015 -965 247 -109 765 -372 1013 -514 934
-534 1735 -1152 2497 -1926 350 -356 714 -771 689 -784 -48 -24 -7070 -2842
-7074 -2838 -4 4 67 221 182 555 l24 72 82 27 c285 94 462 216 537 368 51 103
40 208 -28 279 -15 15 -125 89 -244 163 -120 75 -218 138 -218 140 0 2 15 35
34 72 90 179 161 458 182 721 6 74 10 84 28 89 59 15 197 96 245 142 80 80 96
117 96 230 0 79 -4 102 -22 137 -49 91 -158 172 -312 233 -251 98 -841 191
-1471 230 -96 6 -202 13 -236 16 l-61 5 38 94 c110 267 168 691 156 1135 -11
390 -63 685 -182 1045 -148 449 -362 828 -713 1264 l-27 34 295 -7 c162 -4
376 -11 475 -17z m-1145 -38 c25 -93 33 -163 33 -276 0 -205 -34 -318 -202
-672 -174 -368 -217 -496 -306 -900 -97 -446 -101 -611 -24 -1118 25 -166 68
-330 117 -448 l39 -94 -161 -7 c-393 -17 -816 -57 -1141 -107 -559 -87 -817
-193 -913 -374 -23 -43 -27 -62 -27 -135 0 -73 4 -92 27 -136 59 -113 197
-201 418 -267 63 -19 118 -41 122 -48 4 -8 18 -69 33 -137 34 -158 91 -326
165 -479 l59 -123 -72 -46 c-40 -26 -166 -107 -282 -181 -118 -76 -229 -154
-252 -180 -83 -87 -85 -206 -5 -312 55 -71 175 -130 387 -191 l90 -26 96 -225
c238 -553 420 -1091 574 -1691 48 -188 52 -209 37 -217 -37 -19 -9703 -3903
-9706 -3900 -15 16 -31 494 -31 914 1 494 7 642 46 1068 263 2885 1651 5601
3844 7522 1819 1594 4060 2562 6455 2790 232 22 370 32 477 34 l92 1 11 -39z
m500 -1003 c161 -334 253 -646 294 -998 56 -471 3 -1025 -124 -1288 -45 -95
-124 -185 -177 -203 -23 -7 -65 -9 -121 -4 -126 10 -179 44 -254 165 -80 127
-123 286 -164 615 -35 281 -31 418 21 665 88 422 132 555 296 903 55 115 99
210 99 212 0 11 40 95 45 95 4 0 42 -73 85 -162z m-420 -3128 l0 -160 -117 0
c-437 0 -1216 62 -1590 125 -81 14 -150 25 -155 25 -4 0 -8 4 -8 8 0 9 162 39
355 66 341 48 954 91 1348 95 l167 1 0 -160z m935 150 c384 -18 686 -41 960
-75 181 -23 445 -67 445 -75 0 -9 -274 -53 -490 -79 -289 -35 -604 -57 -1062
-77 l-158 -6 0 161 0 161 43 0 c23 0 141 -5 262 -10z m1340 -692 c-48 -307
-143 -525 -295 -679 -114 -116 -235 -183 -401 -225 -98 -24 -332 -29 -467 -10
-96 14 -238 16 -975 16 -808 0 -868 1 -954 19 -362 75 -616 347 -757 810 l-25
84 42 -6 c477 -66 1053 -97 1782 -97 772 0 1349 33 1845 105 85 12 168 23 183
24 28 1 29 0 22 -41z m8143 -1124 c115 -203 350 -668 452 -894 529 -1178 858
-2454 964 -3740 50 -598 50 -1301 1 -1905 -195 -2390 -1142 -4658 -2710 -6490
-359 -420 -826 -887 -1253 -1253 -2245 -1924 -5132 -2899 -8092 -2731 -1447
82 -2848 432 -4170 1044 -217 100 -601 297 -598 307 5 13 2520 2609 2524 2605
9 -8 -247 -615 -416 -987 -302 -664 -524 -1098 -842 -1644 -93 -159 -167 -290
-166 -292 2 -1 66 15 143 37 392 111 559 154 760 194 1211 242 2757 307 4250
180 661 -57 1261 -141 2008 -281 220 -41 403 -74 407 -72 5 2 -53 104 -127
228 -183 303 -264 450 -407 740 -726 1463 -1288 3252 -1581 5025 -38 232 -97
643 -116 803 l-11 103 58 64 c164 180 8820 9114 8828 9111 6 -1 48 -70 94
-152z m-11787 -30 c42 -27 85 -54 95 -60 13 -8 -14 -7 -86 3 -131 17 -350 52
-370 59 -9 3 22 29 84 69 l98 65 52 -44 c28 -24 85 -66 127 -92z m3697 14 l86
-52 -55 -18 c-85 -29 -194 -55 -324 -78 -200 -34 -198 -34 -93 13 95 44 252
140 278 172 7 8 15 15 17 15 3 0 44 -23 91 -52z m-3518 -567 c572 -66 1363
-117 1950 -128 403 -7 834 10 1077 42 l42 6 -46 -138 c-26 -76 -81 -248 -123
-383 l-76 -244 -1214 -488 c-668 -269 -1219 -487 -1225 -484 -6 2 -19 39 -29
82 -111 474 -327 1129 -565 1712 l-21 54 27 -6 c16 -3 107 -14 203 -25z
m-2514 -7308 c-282 -564 -3248 -6419 -3254 -6425 -4 -3 -61 41 -127 99 -1524
1339 -2640 2992 -3302 4893 -164 470 -322 1063 -416 1553 l-24 127 3623 0
3624 0 -124 -247z m4749 -1758 c273 -1883 847 -3790 1624 -5405 60 -124 108
-226 107 -227 0 -1 -98 14 -216 32 -577 89 -1181 151 -1865 192 -365 22 -1443
25 -1775 5 -706 -42 -1259 -101 -1740 -187 -47 -8 -93 -15 -103 -15 -13 0 6
45 93 219 409 819 758 1632 1096 2559 l103 283 88 94 c218 232 2558 2644 2560
2637 1 -4 14 -88 28 -187z"/>
</g>
</svg>
